<svg xmlns="http://www.w3.org/2000/svg" width="24.924" height="18" viewBox="0 0 24.924 18">
  <g id="그룹_315" data-name="그룹 315" transform="translate(0.001 0)">
    <path id="패스_87" data-name="패스 87" d="M235.937,113.1a2.251,2.251,0,1,0-4.4.955.224.224,0,0,1-.141.3q-3.541,1.885-7.076,3.779c-.119.064-.179.067-.277-.047a2.255,2.255,0,0,0-3.687.247c-.089.138-.151.139-.281.071-2.066-1.086-4.126-2.183-6.206-3.241a2.6,2.6,0,0,1-1.384-1.776,2.479,2.479,0,0,1,.115-1.8.625.625,0,0,1,.936-.3c2.563,1.341,5.129,2.677,7.686,4.03a1.405,1.405,0,0,0,1.431.027c.107-.058.217-.109.325-.165l4.955-2.572,5.725-2.972c.359-.187.721-.37,1.077-.563a.514.514,0,0,0,.02-.947,1.817,1.817,0,0,0-.173-.088c-2.831-1.328-5.685-2.609-8.474-4.025a1.788,1.788,0,0,0-1.574-.063c-.171.073-.34.153-.506.236q-5.685,2.845-11.369,5.693a2.88,2.88,0,0,0-.854.549,2.936,2.936,0,0,0-.741,2.1,3.733,3.733,0,0,0,.1.966,3.945,3.945,0,0,0,2.129,2.876c2.183,1.087,4.337,2.232,6.506,3.347a.563.563,0,0,1,.33.4,2.249,2.249,0,0,0,2.5,1.655,2.216,2.216,0,0,0,1.888-1.918c.022-.149.034-.28.207-.373q3.719-1.991,7.425-4a.283.283,0,0,1,.346.007,2.182,2.182,0,0,0,1.63.326A2.26,2.26,0,0,0,235.937,113.1Zm-13.654,7.19a.743.743,0,1,1,.739-.754A.761.761,0,0,1,222.283,120.288Zm11.434-6.009a.742.742,0,0,1-.731-.725.743.743,0,0,1,1.486-.009A.772.772,0,0,1,233.717,114.279Z" transform="translate(-211.06 -103.797)" fill="#637381"/>
  </g>
</svg>
