<svg xmlns="http://www.w3.org/2000/svg" width="48" height="48" viewBox="0 0 48 48">
  <g id="instagram" transform="translate(-850 -4756.5)">
    <g id="_background" data-name="🎨background" transform="translate(850 4756.5)">
      <circle id="_background-2" data-name="🎨background" cx="24" cy="24" r="24" fill="#fff"/>
    </g>
    <g id="___Icons_ic_replace" data-name="__🥬Icons/ ic_replace" transform="translate(862 4769)">
      <g id="logo-instagram" transform="translate(2 2)">
        <path id="Combined_Shape" data-name="Combined Shape" d="M10,20c-2.692,0-3.049-.011-4.123-.059a5.964,5.964,0,0,1-4.2-1.618,5.96,5.96,0,0,1-1.618-4.2C.012,13.052,0,12.7,0,10S.012,6.948.06,5.877a5.959,5.959,0,0,1,1.618-4.2A5.959,5.959,0,0,1,5.877.06C6.948.012,7.3,0,10,0s3.052.012,4.123.06a5.963,5.963,0,0,1,4.2,1.618,5.967,5.967,0,0,1,1.618,4.2C19.988,6.951,20,7.307,20,10s-.011,3.049-.059,4.123a5.968,5.968,0,0,1-1.618,4.2,5.969,5.969,0,0,1-4.2,1.618C13.048,19.988,12.692,20,10,20ZM10,3.334c-1.819,0-2.053.008-2.749.04a3.974,3.974,0,0,0-2.8,1.079,3.974,3.974,0,0,0-1.079,2.8c-.032.7-.04.929-.04,2.749s.008,2.054.04,2.75a3.977,3.977,0,0,0,1.079,2.8,3.98,3.98,0,0,0,2.8,1.078c.728.033.968.041,2.749.041s2.021-.008,2.75-.041a3.98,3.98,0,0,0,2.8-1.078,3.98,3.98,0,0,0,1.078-2.8c.033-.728.041-.968.041-2.75s-.008-2.021-.041-2.749a3.98,3.98,0,0,0-1.078-2.8,3.977,3.977,0,0,0-2.8-1.079C12.054,3.341,11.82,3.334,10,3.334Zm0,12.132c-1.78,0-1.991-.007-2.694-.039a2.9,2.9,0,0,1-2-.728,2.9,2.9,0,0,1-.728-2.005C4.542,12.01,4.535,11.8,4.535,10s.007-2.011.039-2.694a2.9,2.9,0,0,1,.728-2,2.9,2.9,0,0,1,2-.728c.683-.032.891-.039,2.694-.039s2.011.007,2.694.039A2.9,2.9,0,0,1,14.7,5.3a2.9,2.9,0,0,1,.728,2c.032.7.039.913.039,2.694s-.007,1.991-.039,2.694A2.9,2.9,0,0,1,14.7,14.7a2.9,2.9,0,0,1-2.005.728C11.991,15.459,11.78,15.466,10,15.466Zm3.559-9.824a.8.8,0,1,0,.8.8A.8.8,0,0,0,13.559,5.641Z" fill="#e02d69"/>
      </g>
    </g>
  </g>
</svg>
