<svg id="facebook" xmlns="http://www.w3.org/2000/svg" width="24" height="24" viewBox="0 0 24 24">
  <g id="그룹_264" data-name="그룹 264">
    <g id="___Icons_ic_replace" data-name="__🥬Icons/ ic_replace">
      <g id="facebook-2" data-name="facebook">
        <rect id="Rectangle" width="24" height="24" transform="translate(24 24) rotate(180)" fill="#708495" opacity="0"/>
        <path id="Path" d="M11,.506a.5.5,0,0,0-.5-.5H8a4.77,4.77,0,0,0-5,4.5v2.7H.5a.5.5,0,0,0-.5.5v2.6a.5.5,0,0,0,.5.5H3v6.7a.5.5,0,0,0,.5.5h3a.5.5,0,0,0,.5-.5v-6.7H9.62a.5.5,0,0,0,.49-.37l.72-2.6a.5.5,0,0,0-.48-.63H7v-2.7a1,1,0,0,1,1-.9h2.5a.5.5,0,0,0,.5-.5Z" transform="translate(6 2.994)" fill="#708495"/>
      </g>
    </g>
  </g>
</svg>
