<svg xmlns="http://www.w3.org/2000/svg" xmlns:xlink="http://www.w3.org/1999/xlink" width="60" height="60" viewBox="0 0 60 60">
  <defs>
    <linearGradient id="linear-gradient" y1="0.5" x2="1" y2="0.5" gradientUnits="objectBoundingBox">
      <stop offset="0.257" stop-color="#fff"/>
      <stop offset="1" stop-color="#e6e6e6"/>
    </linearGradient>
  </defs>
  <g id="그룹_674" data-name="그룹 674" transform="translate(-128.484 -175.323)">
    <circle id="타원_13" data-name="타원 13" cx="30" cy="30" r="30" transform="translate(128.484 175.323)" fill="#00ab55"/>
    <g id="그룹_673" data-name="그룹 673" transform="translate(134.099 189.271)">
      <path id="패스_334" data-name="패스 334" d="M193.774,291.887a6.143,6.143,0,0,0-11.168,0l-8.178,17.831a4.931,4.931,0,0,0,1.725,6.218,3.836,3.836,0,0,0,5.476-1.959l3.058-6.667a3.855,3.855,0,0,1,7.008,0l3.154,6.877a3.855,3.855,0,0,0,7.008,0l3.155-6.878a3.855,3.855,0,0,1,7.008,0l3.058,6.667a3.836,3.836,0,0,0,5.476,1.959,4.931,4.931,0,0,0,1.725-6.218L214.1,291.887a6.143,6.143,0,0,0-11.168,0l-3.515,7.662a1.17,1.17,0,0,1-2.128,0Z" transform="translate(-173.968 -288.305)" fill="#d3d3d3"/>
      <path id="패스_335" data-name="패스 335" d="M244.218,292.075l-.009-.018c-.05-.108-.1-.213-.158-.317l-.042-.078q-.085-.155-.176-.3l-.043-.068c-.059-.093-.12-.183-.183-.271l-.023-.033c-.068-.094-.139-.185-.212-.274l-.052-.063q-.108-.129-.222-.251l-.047-.048q-.108-.113-.22-.219l-.034-.032c-.082-.076-.166-.148-.251-.219l-.059-.048c-.086-.069-.172-.136-.261-.2l-.012-.009-.039-.026q-.095-.067-.191-.129l-.044-.029-.033-.02c-.079-.049-.158-.1-.238-.142l-.011-.006c-.038-.021-.076-.04-.114-.06-.057-.03-.115-.061-.173-.09-.042-.021-.085-.039-.127-.059s-.11-.051-.166-.075-.09-.036-.135-.054-.11-.044-.165-.064l-.14-.048c-.055-.018-.109-.037-.165-.054l-.143-.042c-.055-.015-.11-.031-.165-.044l-.146-.034-.166-.035-.148-.027-.168-.027-.149-.02-.169-.018-.149-.013-.17-.009-.149-.005c-.057,0-.115,0-.172,0l-.147,0c-.058,0-.116.005-.175.009l-.144.009c-.06,0-.12.012-.179.019s-.092.009-.138.016c-.063.008-.126.019-.189.03-.042.007-.085.013-.127.021-.075.014-.15.031-.225.048l-.087.019q-.154.037-.307.082l-.1.033c-.068.021-.135.042-.2.066-.042.015-.083.031-.124.047-.059.022-.118.044-.176.068s-.086.038-.129.057-.111.048-.166.074-.087.043-.13.065-.106.054-.158.082-.086.048-.129.073-.1.059-.152.09-.085.054-.127.081-.1.065-.147.1l-.124.089q-.071.052-.141.107l-.12.1q-.069.057-.136.116c-.039.034-.077.068-.115.1s-.088.083-.131.125-.074.073-.11.11-.084.089-.126.135-.07.077-.1.116-.081.1-.121.146-.065.08-.1.121-.078.106-.117.159-.06.082-.089.124-.077.117-.114.176c-.026.041-.053.081-.078.123-.04.067-.078.136-.117.205-.021.037-.042.073-.062.11q-.082.156-.157.319l-.006.012-3.515,7.662h0a1.244,1.244,0,0,1-.081.147l-.012.019a1.164,1.164,0,0,1-.092.121l-.018.021a1.128,1.128,0,0,1-.1.1l-.02.016a1.148,1.148,0,0,1-.118.085l-.013.007a1.123,1.123,0,0,1-.126.065l-.013.006a1.16,1.16,0,0,1-.134.047l-.024.007a1.166,1.166,0,0,1-.135.027l-.027,0a1.19,1.19,0,0,1-.138.009h-.022a1.222,1.222,0,0,1-.145-.01l-.011,0a1.192,1.192,0,0,1-.136-.028c-.019,0-.037-.012-.055-.018s-.059-.019-.088-.031-.041-.018-.061-.028-.051-.025-.076-.039-.041-.025-.061-.038-.045-.031-.067-.048-.039-.03-.058-.047-.04-.038-.06-.058-.036-.036-.053-.056-.036-.046-.053-.07-.031-.041-.045-.063-.035-.062-.051-.094-.02-.035-.029-.054l-3.515-7.662c-.049-.108-.1-.213-.156-.317l-.019-.035c-.047-.089-.1-.176-.146-.26l-.044-.071c-.044-.071-.088-.142-.134-.21l-.057-.082c-.044-.063-.088-.125-.133-.186l-.064-.084q-.067-.087-.137-.171l-.07-.082q-.07-.081-.143-.16l-.073-.077q-.075-.078-.152-.152l-.073-.07c-.054-.051-.109-.1-.165-.148l-.068-.059c-.061-.052-.124-.1-.187-.15l-.055-.043q-.117-.088-.238-.171l-.011-.008a5.969,5.969,0,0,0-.533-.321l-.045-.023c-.074-.039-.149-.077-.225-.112l-.075-.034c-.066-.03-.133-.06-.2-.088l-.089-.035c-.064-.025-.128-.05-.192-.072l-.1-.033q-.094-.032-.19-.061l-.1-.029q-.095-.027-.19-.051l-.1-.025c-.065-.015-.13-.029-.195-.042l-.1-.019c-.068-.012-.136-.023-.2-.033l-.091-.014c-.074-.01-.149-.018-.224-.025l-.072-.008q-.143-.012-.286-.018h-.011q-.153-.006-.307,0h-.017q-.14,0-.28.01l-.081.006c-.072.005-.143.011-.215.018l-.1.012c-.064.008-.129.016-.193.026l-.111.018c-.061.01-.122.021-.183.034l-.115.025-.176.042-.117.03c-.058.016-.115.032-.172.05l-.115.036c-.057.019-.114.039-.171.059l-.112.041-.045.016q-.1.04-.205.084l-.018.008c-.08.035-.158.071-.237.11l-.063.031c-.083.042-.166.085-.248.131a6.056,6.056,0,0,0-2.547,2.8l-4.4,9.585h0a6.144,6.144,0,0,1,10.977.381l2.475,5.4.007.015h0c.008.016.016.031.024.048l3.154,6.877.008.017q.059.127.124.247c.017.031.035.059.053.089.031.053.062.107.1.158.021.033.044.064.067.1s.062.091.1.134.051.063.076.095.065.081.1.12.055.061.083.09.068.073.1.108.06.057.09.085.072.066.108.1.063.052.1.078.075.059.113.087l.1.071c.039.027.078.053.118.078l.1.063c.04.024.081.047.122.069l.107.056c.042.021.084.04.127.06l.109.048c.043.018.088.035.132.051l.11.04c.045.015.091.029.137.043s.072.022.109.032.1.024.144.035l.106.024c.053.01.106.018.159.027l.094.015c.075.01.15.017.225.022.1.007.2.012.293.012h.009l.077,0c.066,0,.131,0,.2-.008.031,0,.062-.006.092-.009.06-.006.12-.011.18-.02l.1-.017c.058-.009.115-.019.172-.031l.1-.024c.056-.013.112-.027.167-.043l.1-.031c.055-.017.109-.035.163-.055l.1-.038c.054-.021.107-.044.16-.068l.093-.044q.079-.038.156-.08l.089-.05c.052-.03.1-.061.153-.094l.084-.055c.051-.035.1-.071.15-.108l.077-.059c.05-.04.1-.082.147-.125l.069-.062c.049-.046.1-.095.144-.144.02-.021.04-.04.059-.061.049-.054.1-.111.144-.168.015-.019.031-.037.046-.056.051-.066.1-.134.148-.2l.027-.039a4.03,4.03,0,0,0,.308-.551l3.154-6.877c.008-.016.016-.031.024-.048l.007-.016h0l2.475-5.395a6.144,6.144,0,0,1,10.977-.381h0Z" transform="translate(-204.087 -288.469)" fill="url(#linear-gradient)"/>
    </g>
  </g>
</svg>
