<?xml version="1.0" encoding="utf-8"?>
<!-- Generator: Adobe Illustrator 25.0.1, SVG Export Plug-In . SVG Version: 6.00 Build 0)  -->
<svg version="1.1" id="Layer_1" xmlns="http://www.w3.org/2000/svg" xmlns:xlink="http://www.w3.org/1999/xlink" x="0px" y="0px"
	 viewBox="0 0 502.1 128" style="enable-background:new 0 0 502.1 128;" xml:space="preserve">
<style type="text/css">
	.st0{fill:#00AB55;}
	.st1{fill:url(#SVGID_1_);}
	.st2{fill:#FFFFFF;}
</style>
<g>
	<g>
		<path class="st0" d="M55.7,37.4c-5.3-11.5-21.7-11.5-27,0L8.9,80.5c-2.5,5.5-0.6,12.2,4.2,15s10.7,0.7,13.2-4.7l7.4-16.1
			c3.3-7.2,13.6-7.2,16.9,0l7.6,16.6c3.3,7.2,13.6,7.2,16.9,0l7.6-16.6c3.3-7.2,13.6-7.2,16.9,0l7.4,16.1c2.5,5.5,8.4,7.6,13.2,4.7
			c4.8-2.8,6.7-9.6,4.2-15l-19.8-43.1c-5.3-11.5-21.7-11.5-27,0l-8.5,18.5c-1,2.2-4.1,2.2-5.1,0L55.7,37.4z"/>
		<g>
			
				<linearGradient id="SVGID_1_" gradientUnits="userSpaceOnUse" x1="18" y1="67.4" x2="115.4173" y2="67.4" gradientTransform="matrix(1 0 0 -1 0 130)">
				<stop  offset="0" style="stop-color:#5BE584"/>
				<stop  offset="1" style="stop-color:#00AB55"/>
			</linearGradient>
			<path class="st1" d="M104.8,37.4L104.8,37.4c-0.1-0.3-0.3-0.6-0.4-0.8c0-0.1-0.1-0.1-0.1-0.2c-0.1-0.2-0.3-0.5-0.4-0.7
				c0-0.1-0.1-0.1-0.1-0.2c-0.1-0.2-0.3-0.4-0.4-0.7c0,0,0-0.1-0.1-0.1c-0.2-0.2-0.3-0.4-0.5-0.7c0-0.1-0.1-0.1-0.1-0.2
				c-0.2-0.2-0.4-0.4-0.5-0.6l-0.1-0.1c-0.2-0.2-0.4-0.4-0.5-0.5l-0.1-0.1c-0.2-0.2-0.4-0.4-0.6-0.5l-0.1-0.1
				c-0.2-0.2-0.4-0.3-0.6-0.5l0,0c0,0-0.1,0-0.1-0.1c-0.2-0.1-0.3-0.2-0.5-0.3c0,0-0.1,0-0.1-0.1h-0.1c-0.2-0.1-0.4-0.2-0.6-0.3l0,0
				c-0.1-0.1-0.2-0.1-0.3-0.1c-0.1-0.1-0.3-0.1-0.4-0.2c-0.1,0-0.2-0.1-0.3-0.1c-0.1-0.1-0.3-0.1-0.4-0.2c-0.1,0-0.2-0.1-0.3-0.1
				c-0.1-0.1-0.3-0.1-0.4-0.2c-0.1,0-0.2-0.1-0.3-0.1c-0.1,0-0.3-0.1-0.4-0.1s-0.2-0.1-0.3-0.1c-0.1,0-0.3-0.1-0.4-0.1
				s-0.2-0.1-0.4-0.1c-0.1,0-0.3-0.1-0.4-0.1s-0.2,0-0.4-0.1c-0.1,0-0.3,0-0.4-0.1c-0.1,0-0.2,0-0.4,0c-0.1,0-0.3,0-0.4,0
				s-0.2,0-0.4,0c-0.1,0-0.3,0-0.4,0s-0.2,0-0.4,0c-0.1,0-0.3,0-0.4,0s-0.2,0-0.4,0c-0.1,0-0.3,0-0.4,0s-0.2,0-0.3,0
				c-0.1,0-0.3,0-0.4,0s-0.2,0-0.3,0c-0.2,0-0.3,0-0.5,0.1c-0.1,0-0.2,0-0.3,0c-0.2,0-0.4,0.1-0.5,0.1s-0.1,0-0.2,0
				c-0.2,0.1-0.5,0.1-0.7,0.2c-0.1,0-0.2,0.1-0.2,0.1c-0.2,0.1-0.3,0.1-0.5,0.2c-0.1,0-0.2,0.1-0.3,0.1c-0.1,0.1-0.3,0.1-0.4,0.2
				c-0.1,0-0.2,0.1-0.3,0.1c-0.1,0.1-0.3,0.1-0.4,0.2s-0.2,0.1-0.3,0.2c-0.1,0.1-0.3,0.1-0.4,0.2s-0.2,0.1-0.3,0.2
				c-0.1,0.1-0.2,0.1-0.4,0.2c-0.1,0.1-0.2,0.1-0.3,0.2c-0.1,0.1-0.2,0.2-0.4,0.2c-0.1,0.1-0.2,0.1-0.3,0.2
				c-0.1,0.1-0.2,0.2-0.3,0.3c-0.1,0.1-0.2,0.2-0.3,0.2c-0.1,0.1-0.2,0.2-0.3,0.3c-0.1,0.1-0.2,0.2-0.3,0.2
				c-0.1,0.1-0.2,0.2-0.3,0.3c-0.1,0.1-0.2,0.2-0.3,0.3c-0.1,0.1-0.2,0.2-0.3,0.3c-0.1,0.1-0.2,0.2-0.3,0.3
				c-0.1,0.1-0.2,0.2-0.3,0.4c-0.1,0.1-0.2,0.2-0.2,0.3c-0.1,0.1-0.2,0.3-0.3,0.4c-0.1,0.1-0.1,0.2-0.2,0.3s-0.2,0.3-0.3,0.4
				c-0.1,0.1-0.1,0.2-0.2,0.3c-0.1,0.2-0.2,0.3-0.3,0.5c0,0.1-0.1,0.2-0.1,0.3c-0.1,0.3-0.3,0.5-0.4,0.8l0,0L69.3,56l0,0
				c-0.1,0.1-0.1,0.2-0.2,0.4l0,0c-0.1,0.1-0.1,0.2-0.2,0.3c0,0,0,0,0,0.1c-0.1,0.1-0.2,0.2-0.3,0.2l0,0c-0.1,0.1-0.2,0.1-0.3,0.2
				l0,0c-0.1,0.1-0.2,0.1-0.3,0.2l0,0c-0.1,0-0.2,0.1-0.3,0.1c0,0,0,0-0.1,0s-0.2,0.1-0.3,0.1c0,0,0,0-0.1,0s-0.2,0-0.3,0
				c0,0,0,0-0.1,0s-0.2,0-0.4,0l0,0c-0.1,0-0.2,0-0.3-0.1H66c-0.1,0-0.1,0-0.2-0.1c0,0-0.1,0-0.1-0.1c-0.1,0-0.1-0.1-0.2-0.1
				l-0.1-0.1c-0.1,0-0.1-0.1-0.2-0.1l-0.1-0.1c-0.1,0-0.1-0.1-0.1-0.1l-0.1-0.1c0-0.1-0.1-0.1-0.1-0.2c0-0.1-0.1-0.1-0.1-0.2
				c0-0.1-0.1-0.1-0.1-0.2c0,0,0-0.1-0.1-0.1L56,37.5c-0.1-0.3-0.2-0.5-0.4-0.8v-0.1c-0.1-0.2-0.2-0.4-0.4-0.6
				c0-0.1-0.1-0.1-0.1-0.2c-0.1-0.2-0.2-0.3-0.3-0.5c0-0.1-0.1-0.1-0.1-0.2c-0.1-0.2-0.2-0.3-0.3-0.5c-0.1-0.1-0.1-0.1-0.2-0.2
				c-0.1-0.1-0.2-0.3-0.3-0.4c-0.1-0.1-0.1-0.1-0.2-0.2c-0.1-0.1-0.2-0.3-0.3-0.4c-0.1-0.1-0.1-0.1-0.2-0.2
				c-0.1-0.1-0.2-0.2-0.4-0.4c-0.1-0.1-0.1-0.1-0.2-0.2c-0.1-0.1-0.3-0.2-0.4-0.4c-0.1,0-0.1-0.1-0.2-0.1c-0.1-0.1-0.3-0.2-0.5-0.4
				l-0.1-0.1c-0.2-0.1-0.4-0.3-0.6-0.4l0,0c-0.4-0.3-0.8-0.5-1.3-0.8c0,0-0.1,0-0.1-0.1c-0.2-0.1-0.4-0.2-0.5-0.3
				c-0.1,0-0.1-0.1-0.2-0.1c-0.2-0.1-0.3-0.1-0.5-0.2c-0.1,0-0.1-0.1-0.2-0.1c-0.2-0.1-0.3-0.1-0.5-0.2c-0.1,0-0.2-0.1-0.2-0.1
				c-0.2-0.1-0.3-0.1-0.5-0.1c-0.1,0-0.2,0-0.2-0.1c-0.2,0-0.3-0.1-0.5-0.1c-0.1,0-0.2,0-0.2-0.1c-0.2,0-0.3-0.1-0.5-0.1
				c-0.1,0-0.2,0-0.2,0c-0.2,0-0.3-0.1-0.5-0.1c-0.1,0-0.1,0-0.2,0c-0.2,0-0.4,0-0.5-0.1c-0.1,0-0.1,0-0.2,0c-0.2,0-0.5,0-0.7,0l0,0
				c-0.2,0-0.5,0-0.7,0l0,0c-0.2,0-0.5,0-0.7,0c-0.1,0-0.1,0-0.2,0c-0.2,0-0.3,0-0.5,0c-0.1,0-0.2,0-0.2,0c-0.2,0-0.3,0-0.5,0.1
				c-0.1,0-0.2,0-0.3,0s-0.3,0.1-0.4,0.1c-0.1,0-0.2,0-0.3,0.1c-0.1,0-0.3,0.1-0.4,0.1c-0.1,0-0.2,0-0.3,0.1c-0.1,0-0.3,0.1-0.4,0.1
				c-0.1,0-0.2,0.1-0.3,0.1s-0.3,0.1-0.4,0.1c-0.1,0-0.2,0.1-0.3,0.1h-0.1c-0.2,0.1-0.3,0.1-0.5,0.2l0,0c-0.2,0.1-0.4,0.2-0.6,0.3
				c-0.1,0-0.1,0-0.2,0.1c-0.2,0.1-0.4,0.2-0.6,0.3c-2.6,1.4-4.8,3.7-6.2,6.8L18,60.6l0,0c5.7-10.6,21.4-10.3,26.5,0.9l6,13l0,0l0,0
				c0,0,0,0.1,0.1,0.1l7.6,16.6l0,0c0.1,0.2,0.2,0.4,0.3,0.6c0,0.1,0.1,0.1,0.1,0.2c0.1,0.1,0.1,0.3,0.2,0.4
				c0.1,0.1,0.1,0.2,0.2,0.2c0.1,0.1,0.2,0.2,0.2,0.3c0.1,0.1,0.1,0.2,0.2,0.2c0.1,0.1,0.2,0.2,0.2,0.3c0.1,0.1,0.1,0.1,0.2,0.2
				c0.1,0.1,0.2,0.2,0.3,0.3c0.1,0.1,0.1,0.1,0.2,0.2c0.1,0.1,0.2,0.2,0.3,0.2c0.1,0.1,0.2,0.1,0.2,0.2c0.1,0.1,0.2,0.1,0.3,0.2
				s0.2,0.1,0.2,0.2c0.1,0.1,0.2,0.1,0.3,0.2s0.2,0.1,0.3,0.2s0.2,0.1,0.3,0.2c0.1,0,0.2,0.1,0.3,0.1c0.1,0.1,0.2,0.1,0.3,0.1
				s0.2,0.1,0.3,0.1s0.2,0.1,0.3,0.1s0.2,0.1,0.3,0.1s0.2,0.1,0.3,0.1s0.2,0.1,0.3,0.1c0.1,0,0.2,0.1,0.3,0.1c0.1,0,0.2,0,0.3,0.1
				c0.1,0,0.3,0,0.4,0.1c0.1,0,0.2,0,0.2,0c0.2,0,0.4,0,0.5,0.1c0.2,0,0.5,0,0.7,0l0,0c0.1,0,0.1,0,0.2,0c0.2,0,0.3,0,0.5,0
				c0.1,0,0.1,0,0.2,0s0.3,0,0.4,0s0.2,0,0.2,0c0.1,0,0.3,0,0.4-0.1c0.1,0,0.2,0,0.2-0.1c0.1,0,0.3-0.1,0.4-0.1s0.2,0,0.2-0.1
				c0.1,0,0.3-0.1,0.4-0.1S70,96,70,96c0.1-0.1,0.3-0.1,0.4-0.2c0.1,0,0.2-0.1,0.2-0.1c0.1-0.1,0.3-0.1,0.4-0.2
				c0.1,0,0.1-0.1,0.2-0.1c0.1-0.1,0.2-0.1,0.4-0.2c0.1,0,0.1-0.1,0.2-0.1c0.1-0.1,0.2-0.2,0.4-0.3c0.1,0,0.1-0.1,0.2-0.1
				c0.1-0.1,0.2-0.2,0.4-0.3c0.1,0,0.1-0.1,0.2-0.1c0.1-0.1,0.2-0.2,0.3-0.3l0.1-0.1c0.1-0.1,0.2-0.3,0.3-0.4l0.1-0.1
				c0.1-0.2,0.2-0.3,0.4-0.5c0,0,0-0.1,0.1-0.1c0.3-0.4,0.5-0.9,0.7-1.3l7.6-16.6c0,0,0-0.1,0.1-0.1l0,0l0,0l6-13
				c5.2-11.2,20.8-11.5,26.5-0.9l0,0l0,0L104.8,37.4z"/>
		</g>
	</g>
	<g>
		<path class="st2" d="M146,92V45h-11.5c-1.1,0-2-0.2-2.8-0.6c-0.8-0.4-1.4-0.9-1.9-1.6c-0.5-0.6-0.8-1.4-1-2.2s-0.3-1.6-0.3-2.3
			s0.1-1.5,0.3-2.3s0.6-1.5,1-2.1c0.5-0.6,1.1-1.1,1.9-1.5c0.8-0.4,1.7-0.6,2.8-0.6H173c1.1,0,2,0.2,2.8,0.6s1.4,0.9,1.9,1.5
			s0.8,1.3,1,2.1s0.3,1.5,0.3,2.3c0,0.7-0.1,1.5-0.3,2.3s-0.6,1.5-1.1,2.2c-0.5,0.6-1.1,1.2-1.9,1.6c-0.7,0.4-1.7,0.6-2.8,0.6h-11.5
			v47H146z"/>
		<path class="st2" d="M205.8,92l-0.6-3.1c-1.5,1.3-3.1,2.4-5.1,3.2c-1.9,0.8-4,1.2-6.3,1.2h-1.6c-1.5,0-3.2-0.2-5-0.7
			s-3.5-1.3-5-2.4s-2.8-2.7-3.8-4.6s-1.5-4.4-1.5-7.3c0-2.8,0.5-5.2,1.5-7.1s2.3-3.4,4-4.6c1.7-1.1,3.6-2,5.8-2.5s4.6-0.7,7-0.7h7.7
			c-0.1-1.1-0.3-2-0.6-2.7c-0.4-0.7-0.9-1.3-1.5-1.7s-1.3-0.7-2.2-0.9c-0.8-0.2-1.7-0.3-2.6-0.3c-0.9,0-1.7,0.1-2.5,0.2
			c-0.8,0.2-1.6,0.4-2.5,0.6c-0.6,0.2-1.2,0.4-1.7,0.7s-1.1,0.5-1.8,0.8c-0.7,0.4-1.4,0.5-2.2,0.6c-0.8,0-1.5-0.1-2.3-0.3
			c-0.7-0.2-1.4-0.6-2.1-1.1c-0.6-0.5-1.1-1.1-1.5-1.9c-0.7-1.5-0.8-3-0.3-4.4s1.4-2.6,2.7-3.6c1-0.7,2.1-1.4,3.4-1.9
			c1.2-0.5,2.5-0.9,3.9-1.2c1.3-0.3,2.7-0.6,4.1-0.7c1.4-0.2,2.7-0.2,4-0.2c2.7,0,5.3,0.3,7.8,0.9c2.5,0.6,4.6,1.6,6.5,3.1
			s3.4,3.5,4.5,6.1s1.7,5.9,1.7,10V92H205.8z M202.9,74.3h-6.8c-1.5,0-2.5,0.3-3.3,1c-0.7,0.7-1.1,1.6-1.1,2.8
			c0,1.2,0.4,2.2,1.1,2.8c0.7,0.6,1.8,0.9,3.1,0.9h1c0.7,0,1.4-0.1,2.1-0.3c0.7-0.2,1.3-0.5,1.9-0.9c0.6-0.4,1-0.9,1.4-1.5
			s0.6-1.3,0.6-2.1V74.3z"/>
		<path class="st2" d="M253.1,92l-0.6-3.1c-1.5,1.3-3.1,2.4-5.1,3.2c-1.9,0.8-4,1.2-6.3,1.2h-1.6c-1.5,0-3.2-0.2-5-0.7
			s-3.5-1.3-5-2.4s-2.8-2.7-3.8-4.6s-1.5-4.4-1.5-7.3c0-2.8,0.5-5.2,1.5-7.1s2.3-3.4,4-4.6c1.7-1.1,3.6-2,5.8-2.5s4.6-0.7,7-0.7h7.7
			c-0.1-1.1-0.3-2-0.6-2.7c-0.4-0.7-0.9-1.3-1.5-1.7s-1.3-0.7-2.2-0.9c-0.8-0.2-1.7-0.3-2.6-0.3c-0.9,0-1.7,0.1-2.5,0.2
			c-0.8,0.2-1.6,0.4-2.5,0.6c-0.6,0.2-1.2,0.4-1.7,0.7s-1.1,0.5-1.8,0.8c-0.7,0.4-1.4,0.5-2.2,0.6c-0.8,0-1.5-0.1-2.3-0.3
			c-0.7-0.2-1.4-0.6-2.1-1.1c-0.6-0.5-1.1-1.1-1.5-1.9c-0.7-1.5-0.8-3-0.3-4.4s1.4-2.6,2.7-3.6c1-0.7,2.1-1.4,3.4-1.9
			c1.2-0.5,2.5-0.9,3.9-1.2c1.3-0.3,2.7-0.6,4.1-0.7c1.4-0.2,2.7-0.2,4-0.2c2.7,0,5.3,0.3,7.8,0.9c2.5,0.6,4.6,1.6,6.5,3.1
			s3.4,3.5,4.5,6.1s1.7,5.9,1.7,10V92H253.1z M250.2,74.3h-6.8c-1.5,0-2.5,0.3-3.3,1c-0.7,0.7-1.1,1.6-1.1,2.8
			c0,1.2,0.4,2.2,1.1,2.8c0.7,0.6,1.8,0.9,3.1,0.9h1c0.7,0,1.4-0.1,2.1-0.3c0.7-0.2,1.3-0.5,1.9-0.9c0.6-0.4,1-0.9,1.4-1.5
			s0.6-1.3,0.6-2.1V74.3z"/>
		<path class="st2" d="M272.5,36.2c0-2.6,0.8-4.5,2.3-5.7s3.3-1.8,5.4-1.8s3.9,0.6,5.4,1.8c1.5,1.2,2.3,3.1,2.3,5.7V92h-15.4
			L272.5,36.2L272.5,36.2z"/>
		<path class="st2" d="M310.8,49.2c-0.1,1.4,0.7,2.6,2.4,3.6c1.6,1,4,2,7,3l3.7,1.3c2.2,0.8,4.2,1.8,6,3s3.3,2.6,4.5,4.2
			s2.2,3.4,2.8,5.5c0.6,2,0.8,4.2,0.7,6.6c-0.4,5.3-2.5,9.5-6.5,12.4s-9.4,4.4-16.2,4.4c-3.3,0-6.6-0.4-9.7-1.1s-5.7-1.9-7.7-3.5
			c-0.7-0.6-1.3-1.3-1.8-2.1c-0.5-0.8-0.9-1.6-1.1-2.4s-0.3-1.7-0.1-2.7c0.1-0.9,0.5-1.8,1-2.7c0.5-0.8,1.3-1.5,2.3-1.9s2-0.7,3-0.7
			c1.3,0,2.3,0.1,3.1,0.6c0.8,0.4,1.5,0.9,2.2,1.3c0.8,0.6,1.9,1,3.3,1.4c1.3,0.4,3.3,0.6,5.8,0.6c2.1,0,3.7-0.4,4.9-1.1
			c1.1-0.7,1.7-1.9,1.8-3.6c0-0.7-0.3-1.4-0.8-2c-0.6-0.6-1.3-1.2-2.4-1.8c-1-0.5-2.2-1.1-3.6-1.6s-2.8-1-4.3-1.5
			c-0.6-0.2-1.2-0.4-1.9-0.7c-0.7-0.2-1.2-0.5-1.7-0.7c-2.8-1.2-5.1-2.7-6.9-4.5c-1.7-1.8-3.1-3.7-3.9-5.8c-0.9-2.1-1.3-4.2-1.3-6.4
			s0.3-4.3,0.9-6.2c1.3-4,3.7-7.2,7.2-9.4s7.9-3.3,13-3.3c1.9,0,3.7,0.1,5.1,0.3c1.5,0.2,2.8,0.4,3.9,0.7s2.1,0.6,2.9,1
			s1.6,0.7,2.3,1.1c1.7,0.9,3.1,2.3,4.1,4s1.2,3.4,0.6,5.2c-0.5,1.5-1.3,2.6-2.5,3.3c-1.2,0.6-2.5,1-3.9,1c-0.6,0-1.2-0.1-1.9-0.3
			c-0.7-0.2-1.2-0.4-1.6-0.7c-0.9-0.6-2-1.1-3.4-1.6c-1.4-0.4-3.2-0.7-5.5-0.7c-1.8,0-3.2,0.4-4.2,1.1
			C311.3,46.6,310.8,47.7,310.8,49.2z"/>
		<path class="st2" d="M395.7,92h-14.6l-7.7-24.8L365.3,92h-14.6l-11.1-37c-0.4-1.1-0.5-2.2-0.4-3.3s0.3-2,0.7-2.9
			c0.4-0.9,1-1.6,1.8-2.2c0.8-0.6,1.7-1,2.7-1.2c2.1-0.4,4.1-0.3,5.9,0.5s3,2.4,3.6,4.7l5.8,23.8l7-23.2c0.6-2,1.5-3.4,2.7-4.3
			c1.2-0.8,2.5-1.3,4.1-1.3c1.5,0,2.9,0.4,4.2,1.2c1.2,0.8,2.2,2.2,2.8,4.3l7,23.5l5.6-24.1c0.5-2.3,1.7-3.9,3.4-4.7
			c1.7-0.8,3.7-0.9,5.8-0.5c1,0.2,1.9,0.6,2.6,1.2c0.7,0.6,1.3,1.4,1.7,2.2c0.4,0.9,0.6,1.8,0.7,2.9c0,1.1-0.1,2.2-0.4,3.3L395.7,92
			z"/>
		<path class="st2" d="M438.8,92l-0.6-3.1c-1.5,1.3-3.1,2.4-5.1,3.2c-1.9,0.8-4,1.2-6.3,1.2h-1.6c-1.5,0-3.2-0.2-5-0.7
			s-3.5-1.3-5-2.4s-2.8-2.7-3.8-4.6s-1.5-4.4-1.5-7.3c0-2.8,0.5-5.2,1.5-7.1s2.3-3.4,4-4.6c1.7-1.1,3.6-2,5.8-2.5
			c2.2-0.5,4.6-0.7,7-0.7h7.7c-0.1-1.1-0.3-2-0.6-2.7c-0.4-0.7-0.9-1.3-1.5-1.7s-1.3-0.7-2.2-0.9c-0.8-0.2-1.7-0.3-2.6-0.3
			s-1.7,0.1-2.5,0.2c-0.8,0.2-1.6,0.4-2.5,0.6c-0.6,0.2-1.2,0.4-1.7,0.7s-1.1,0.5-1.8,0.8c-0.7,0.4-1.4,0.5-2.2,0.6
			c-0.8,0-1.5-0.1-2.3-0.3c-0.7-0.2-1.4-0.6-2.1-1.1c-0.6-0.5-1.1-1.1-1.5-1.9c-0.7-1.5-0.8-3-0.3-4.4s1.4-2.6,2.7-3.6
			c1-0.7,2.1-1.4,3.4-1.9c1.2-0.5,2.5-0.9,3.9-1.2c1.3-0.3,2.7-0.6,4.1-0.7c1.4-0.2,2.7-0.2,4-0.2c2.7,0,5.3,0.3,7.8,0.9
			c2.5,0.6,4.6,1.6,6.5,3.1s3.4,3.5,4.5,6.1s1.7,5.9,1.7,10V92H438.8z M435.9,74.3h-6.8c-1.5,0-2.5,0.3-3.3,1
			c-0.7,0.7-1.1,1.6-1.1,2.8c0,1.2,0.4,2.2,1.1,2.8c0.7,0.6,1.8,0.9,3.1,0.9h1c0.7,0,1.4-0.1,2.1-0.3c0.7-0.2,1.3-0.5,1.9-0.9
			s1-0.9,1.4-1.5s0.6-1.3,0.6-2.1L435.9,74.3L435.9,74.3z"/>
		<path class="st2" d="M457.9,105.2V52.7c0-1.2,0.2-2.3,0.6-3.3c0.4-0.9,1-1.7,1.7-2.3s1.5-1.1,2.4-1.4c0.9-0.3,1.8-0.5,2.8-0.5
			c1.4,0,2.8,0.4,4.1,1c1.3,0.7,2.2,1.7,2.9,3.1c1.4-1.3,3.1-2.4,5.1-3.1c1.9-0.7,3.8-1,5.7-1c2.4,0,4.8,0.3,7,1s4.2,1.8,5.8,3.4
			c1.7,1.6,3,3.7,4,6.4c1,2.6,1.5,5.9,1.5,9.9v6.7c0,3.9-0.5,7.2-1.5,9.9c-1,2.6-2.3,4.8-4,6.4s-3.6,2.7-5.8,3.4c-2.2,0.7-4.6,1-7,1
			c-1.9,0-3.7-0.3-5.4-0.8c-1.7-0.5-3.3-1.3-4.7-2.3v15H457.9z M486.1,64.8c0-1.2-0.2-2.3-0.6-3.2s-1-1.6-1.6-2.1
			c-0.7-0.5-1.3-0.9-2.1-1.2s-1.5-0.3-2.1-0.3c-0.7,0-1.4,0.1-2.1,0.3c-0.8,0.2-1.5,0.6-2.1,1.2c-0.6,0.6-1.2,1.3-1.6,2.1
			c-0.4,0.9-0.6,1.9-0.6,3.2V74c0,1.2,0.3,2.2,0.7,3c0.4,0.8,1,1.5,1.6,2s1.3,0.9,2.1,1.1c0.7,0.2,1.4,0.3,2.1,0.3
			c0.6,0,1.3-0.1,2.1-0.3c0.7-0.2,1.4-0.6,2.1-1.2c0.6-0.5,1.2-1.2,1.6-2.1c0.4-0.8,0.6-1.9,0.6-3.2v-8.8H486.1z"/>
	</g>
</g>
</svg>
